Coordinates
version=1
nRows=27
nColumns=12
inDegrees=yes

Units are S.I. units (second, meters, Newtons, ...)
Angles are in degrees

endheader
time	SC_y	SC_z	SC_x	AC_y	AC_z	AC_x	GH_y	GH_z	GH_yy	EL_x	PS_y
       0.0              -26.41          27.62          49.92          30.24          5.867           6.85         -34.94          65.16         -8.972          16.09          73.21
   0.04355              -26.42          27.62          49.92          30.24          5.864          6.852         -34.95          65.16          -8.99           16.1          73.22
    0.0871              -26.42          27.62          49.92          30.24           5.86          6.853         -34.96          65.16          -9.01          16.11          73.23
    0.1307              -26.43          27.61          49.91          30.25          5.855          6.855         -34.97          65.15         -9.031          16.12          73.23
    0.1742              -26.43          27.61          49.91          30.25          5.851          6.857         -34.98          65.15         -9.053          16.13          73.24
    0.2178              -26.44          27.61          49.91          30.26          5.846          6.859          -35.0          65.15         -9.077          16.14          73.25
    0.2613              -26.44          27.61          49.91          30.27          5.841          6.861         -35.01          65.14         -9.102          16.15          73.27
    0.3049              -26.45          27.61           49.9          30.27          5.836          6.863         -35.02          65.14         -9.129          16.16          73.28
    0.3484              -26.45          27.61           49.9          30.28           5.83          6.865         -35.04          65.13         -9.158          16.18          73.29
     0.392              -26.46          27.61           49.9          30.29          5.823          6.867         -35.05          65.13         -9.189          16.19           73.3
    0.4355              -26.47           27.6          49.89          30.29          5.817           6.87         -35.07          65.12         -9.223           16.2          73.32
    0.4791              -26.47           27.6          49.89           30.3          5.809          6.873         -35.09          65.12         -9.259          16.22          73.33
    0.5226              -26.48           27.6          49.89          30.31          5.802          6.876         -35.11          65.11         -9.297          16.24          73.35
    0.5662              -26.49           27.6          49.88          30.32          5.793          6.879         -35.13           65.1         -9.339          16.26          73.37
    0.6097               -26.5          27.59          49.88          30.33          5.784          6.883         -35.16           65.1         -9.384          16.28          73.39
    0.6533              -26.51          27.59          49.87          30.34          5.774          6.887         -35.18          65.09         -9.434           16.3          73.41
    0.6968              -26.52          27.59          49.87          30.36          5.763          6.891         -35.21          65.08         -9.487          16.32          73.43
    0.7404              -26.54          27.59          49.86          30.37          5.752          6.895         -35.24          65.07         -9.545          16.35          73.46
    0.7839              -26.55          27.58          49.86          30.39          5.739            6.9         -35.27          65.06         -9.609          16.37          73.49
    0.8275              -26.57          27.58          49.85           30.4          5.725          6.906         -35.31          65.05         -9.678          16.41          73.52
     0.871              -26.58          27.58          49.84          30.42           5.71          6.912         -35.35          65.04         -9.754          16.44          73.55
    0.9146               -26.6          27.57          49.84          30.44          5.693          6.918         -35.39          65.03         -9.838          16.48          73.59
    0.9581              -26.62          27.57          49.83          30.46          5.674          6.926         -35.44          65.01         -9.931          16.52          73.63
     1.002              -26.64          27.56          49.82          30.49          5.653          6.934         -35.49           65.0         -10.03          16.56          73.67
     1.045              -26.67          27.55          49.81          30.51           5.63          6.943         -35.55          64.98         -10.15          16.61          73.72
     1.089               -26.7          27.55          49.79          30.54          5.605          6.953         -35.62          64.96         -10.28          16.67          73.78
     1.132              -26.73          27.54          49.78          30.58          5.576          6.964         -35.69          64.94         -10.42          16.73          73.84
